<svg xmlns="http://www.w3.org/2000/svg" style="isolation:isolate" width="500" height="200"><defs><clipPath id="a"><path d="M0 0h500v200H0z"/></clipPath></defs><g clip-path="url(#a)"><path d="M305.356 98.635h-6.348V35.154h6.348v25.505q.258-.081 1.888-1.012t2.016-1.093q.386-.162 1.844-.931 1.459-.769 2.059-.931.601-.162 1.974-.648 1.372-.486 2.273-.648.901-.162 2.188-.324 1.287-.162 2.573-.162 6.521 0 10.295 4.049 3.775 4.048 3.775 9.716v29.96h-6.348v-29.96q0-3.886-2.102-5.829-2.102-1.944-5.62-1.944-3.26 0-6.176.648-2.917.648-4.676 1.336-1.759.688-5.963 2.632v33.117zm43.754-49.959v-4.373q0-2.024 2.059-2.024h4.289q1.973 0 1.973 2.024v4.373q0 1.862-1.973 1.862h-4.289q-2.059 0-2.059-1.862zm7.206 49.959h-6.348V55.639h6.348v42.996zm21.19 0h-6.348V55.639h4.461l1.887 5.02q.258-.081 1.888-1.012t2.016-1.093q.386-.162 1.844-.931 1.459-.769 2.06-.931.6-.162 1.973-.648 1.372-.486 2.273-.648.901-.162 2.188-.324 1.287-.162 2.573-.162 6.521 0 10.295 4.049 3.775 4.048 3.775 9.716v29.96h-6.348v-29.96q0-3.805-2.145-5.789-2.145-1.984-5.577-1.984-3.26 0-6.176.648-2.917.648-4.676 1.336-1.759.688-5.963 2.632v33.117z" fill="#061B33"/><path d="M222.783 38.635v-8.016q0-12.267 6.692-16.943Q236.166 9 248.263 9q8.75 0 32.171 2.915v7.287l-32.171-1.214q-1.545-.122-2.703-.122-6.563 0-9.909 2.612-3.345 2.611-3.345 10.141v8.016q0 7.531 3.152 9.717 3.153 2.186 9.974 2.186h18.273q20.075 0 20.075 20.89v8.259q0 6.195-2.188 10.324-2.187 4.13-6.176 6.134-3.99 2.004-8.108 2.733-4.118.728-9.523.728-4.504 0-15.892-1.093-11.389-1.093-16.279-1.943v-7.288q14.155 1.336 32.171 1.336 16.472 0 16.472-10.931v-8.259q0-5.708-2.316-8.805-2.316-3.097-8.236-3.097h-18.016q-7.335 0-12.161-1.701-4.826-1.7-7.013-4.979-2.188-3.28-2.96-6.498-.772-3.219-.772-7.713z" fill="#FFAD00"/><path d="M116.788 85.598V55.639h6.349v29.959q0 3.806 2.145 5.79 2.144 1.984 5.576 1.984 3.26 0 6.177-.648t4.676-1.336q1.758-.689 5.962-2.632V55.639h6.349v42.996h-4.462l-1.887-5.021q-.257.081-1.887 1.013-1.63.931-2.016 1.093-.387.162-1.845.931t-2.059.931q-.6.162-1.973.648-1.373.486-2.274.648-.9.161-2.187.323t-2.574.162q-6.52 0-10.295-4.048-3.775-4.049-3.775-9.717zm58.166 13.037h-6.348V55.639h4.461l1.887 5.02q.258-.081 1.888-1.012t2.016-1.093q.386-.162 1.844-.931 1.459-.769 2.059-.931.601-.162 1.974-.648 1.372-.486 2.273-.648.901-.162 2.188-.324 1.287-.162 2.573-.162 6.521 0 10.295 4.049 3.775 4.048 3.775 9.716v29.96h-6.348v-29.96q0-3.805-2.145-5.789-2.145-1.984-5.577-1.984-3.26 0-6.176.648-2.917.648-4.676 1.336-1.759.688-5.963 2.632v33.117z" fill="#061B33"/><path d="M41.421 38.635v-8.016q0-12.267 6.692-16.943Q54.805 9 66.901 9q8.751 0 32.172 2.915v7.287l-32.172-1.214q-1.544-.122-2.702-.122-6.563 0-9.909 2.612-3.346 2.611-3.346 10.141v8.016q0 7.531 3.153 9.717 3.153 2.186 9.973 2.186h18.273q20.075 0 20.075 20.89v8.259q0 6.195-2.187 10.324-2.188 4.13-6.177 6.134-3.989 2.004-8.107 2.733-4.118.728-9.523.728-4.504 0-15.893-1.093-11.389-1.093-16.279-1.943v-7.288q14.156 1.336 32.172 1.336 16.472 0 16.472-10.931v-8.259q0-5.708-2.317-8.805-2.316-3.097-8.236-3.097H64.327q-7.335 0-12.161-1.701-4.825-1.7-7.013-4.979-2.188-3.28-2.96-6.498-.772-3.219-.772-7.713z" fill="#FFAD00"/><path fill="#061B33" d="M41.421 114.554h417.158v3.596H41.421z"/><text transform="translate(41.421 184.895) scale(3.596)" font-family="Aldrich" font-weight="400" font-size="20" letter-spacing="1.5" fill="#061b33">BUILDERS</text><path d="M421.26 76.934q0-7.125 1.029-11.457 1.03-4.332 3.732-6.559 2.703-2.226 6.006-2.914 3.302-.689 9.136-.689 4.719 0 7.378.405 2.66.405 5.233 1.862 2.574 1.458 3.689 4.616 1.116 3.158 1.116 8.34 0 9.878-11.754 9.878h-19.217q0 7.53 1.802 10.081 1.802 2.551 6.863 2.551h3.603q12.011 0 17.845-.81v4.534q-8.493 2.267-21.448 2.267-8.665 0-11.839-4.696-3.174-4.696-3.174-17.409zm6.35-2.427h19.217q5.405 0 5.405-3.968 0-6.235-1.931-7.733-1.93-1.498-9.051-1.498-3.002 0-4.418.081-1.415.081-3.346.446l-2.745 1.174q-.815.809-1.716 2.267-.901 1.457-1.158 3.725-.257 2.267-.257 5.506z" fill="#061B33"/></g></svg>