<svg version="1" xmlns="http://www.w3.org/2000/svg" width="693.333" height="693.333" viewBox="0 0 520 520"><path d="M80.5 68.6c-32.5 5-54.4 16.1-66.4 33.9-4.7 6.8-9.3 18-10.7 25.5-.2.8-.9 4.4-1.6 8-.9 4.6-1.3 16.5-1.2 41.5.1 42 .9 47.8 9.5 65.3 8.7 17.8 20.5 27.5 40.9 33.5 4.7 1.4 10.3 2.8 12.5 3.1 2.2.3 5 .7 6.2 1 5.7 1.2 26.8 1.8 70.3 2.1 34.1.2 48.6.6 51.5 1.5 15.7 4.9 23.9 15.7 27.1 35.5 1.1 7.2 1 50.1-.2 57.2-3.6 21.7-19.8 33.2-51.8 37-10.6 1.3-79.3.5-106.1-1.2-2.2-.1-9.4-.5-16-.9s-13.3-.9-15-1.1c-1.6-.2-6.2-.7-10.1-1l-7.1-.6v15.6c0 15 0 15.5 2.1 16 1.1.3 7.7 1.2 14.6 2 6.9.9 13.9 1.8 15.5 2 1.7.2 5.5.7 8.5.9 3 .3 8.2.8 11.5 1.1 3.3.3 7.6.8 9.5 1 5.9.7 13.1 1.4 21.5 2 4.4.4 9.6.8 11.5 1 20.9 2 52 2.6 68 1.2 5.2-.5 9.7-1 10-1.2.3-.2 2.8-.6 5.6-1 2.8-.3 9.1-1.9 14-3.5 31.6-10.1 45.5-24.3 53-54 1.4-5.3 1.7-12.7 2-39 .3-39.3-.7-48.3-7.3-65-7.2-18.2-23.4-33.3-41.3-38.7-16.2-4.8-10.9-4.5-104.5-5.7-28.2-.3-31.7-.6-37-2.6-1.4-.5-2.5-.7-2.5-.5 0 1.3-11.9-5-14.8-7.8-9.2-8.8-11.3-19.2-11.2-56.2.1-29.7.3-33.2 2.6-41.4 3.5-12.1 9.2-19 19.7-24 11.5-5.4 17.4-6.1 45.2-5.6 13.8.3 28.6.7 33 .9 4.4.3 15.5.7 24.8 1.1 9.2.3 20.9.8 26 1 13.5.6 43.7 1.7 47.2 1.7 7 0 6.5 1.3 6.2-15.4l-.2-15.3-4.9-.7c-2.6-.4-7.6-1-11-1.3-3.3-.4-6.8-.8-7.6-1-1.4-.2-7.4-.9-19.5-2.1-2.7-.3-6.1-.7-7.5-1-2.6-.4-7.2-.9-19.5-1.9-3.8-.3-8.1-.8-9.4-1-1.3-.2-6.9-.7-12.5-1-5.5-.4-11.2-.9-12.6-1.1-6.2-1.3-51.8-1.1-60.5.2zm268.4-1.2c-.2.2-3.1.7-6.4 1.1-27.6 3.1-50.5 12.9-63.3 27.1-8.3 9.2-14.8 24-17.8 40.9-.4 2.2-.8 19.5-.9 38.5-.3 37.4.3 44.2 5 57.7 4.1 11.8 10.4 22.2 17.5 29.1 8.4 8.1 26.7 15.9 42 17.8 2.5.3 5.6.7 7 1 7.5 1.2 21.3 1.6 66.1 1.9 52.1.3 52.9.3 62 5.1 8.2 4.2 15 15.1 17.5 28.2 2.1 10.8 2.1 57.4 0 65-5.1 18.5-22.8 30-50.6 32.9-9 .9-48 .9-79-.1-22.7-.7-26.7-.9-44-2.2-9.7-.7-10.9-.7-24.2-1.8l-7.8-.6v15.4c0 18-2.2 15.6 17 18.1 6.9.9 13.6 1.8 15 2 1.4.2 5.7.6 9.5 1 3.9.3 8.1.7 9.5 1 1.4.2 5.9.7 10 1 4.1.4 9.1.8 11 1 7.9.7 19.7 1.8 23 2 1.9.1 8 .6 13.5 1.1 23.8 2 56.4.8 73-2.6 14.3-3 30.9-10 40.3-17.1 10.9-8.3 19.5-22.6 23.4-39 2-8.7 2.2-11.9 2.2-42.4 0-22.9-.4-35.3-1.3-40.5-6.4-36.9-24.6-56.5-59-63.7-7.8-1.6-15.2-1.8-88.6-2.7-36.4-.4-39.7-.8-51.1-6-9.1-4.2-13.2-9.8-16.5-22.2-1.8-6.9-2.1-11.3-2.2-33.9-.3-36.2.7-44.4 6.6-55.8 5-9.6 14.5-15.8 29.2-19.1 6.9-1.5 31.8-1.6 64.5-.2 5.8.3 17.7.8 26.5 1.1 8.8.3 20.5.8 26 1 15.4.6 41.4 1.6 47 1.8l5.1.2-.1-15.2c0-8.3-.3-15.4-.5-15.6-.3-.3-3.4-.8-7-1.1-3.6-.4-9.4-1.1-13-1.6-3.6-.5-9-1.1-12-1.5-3-.3-6.8-.8-8.5-1-1.6-.2-6.1-.7-9.9-1-3.8-.4-7.8-.9-9-1.1-1.1-.2-5.4-.6-9.5-1-4.1-.3-8.9-.7-10.5-1-1.7-.2-7.1-.6-12.1-1-4.9-.3-10.6-.8-12.5-1-4.4-.6-51.6-1.5-52.1-1z"/></svg>