<?xml version="1.0" standalone="no"?><!-- Generator: Gravit.io --><svg xmlns="http://www.w3.org/2000/svg" xmlns:xlink="http://www.w3.org/1999/xlink" style="isolation:isolate" viewBox="0 0 500 200" width="500" height="200"><defs><clipPath id="_clipPath_pH8FRpd5O4N2vtMnqTwdBq4ivdXmj47l"><rect width="500" height="200"/></clipPath></defs><g clip-path="url(#_clipPath_pH8FRpd5O4N2vtMnqTwdBq4ivdXmj47l)"><g id="Group"/><g id="Group"><g id="Group"><g id="Group"><path d=" M 305.356 98.635 L 299.008 98.635 L 299.008 35.154 L 305.356 35.154 L 305.356 60.659 L 305.356 60.659 Q 305.614 60.578 307.244 59.647 L 307.244 59.647 L 307.244 59.647 Q 308.874 58.716 309.26 58.554 L 309.26 58.554 L 309.26 58.554 Q 309.646 58.392 311.104 57.623 L 311.104 57.623 L 311.104 57.623 Q 312.563 56.854 313.163 56.692 L 313.163 56.692 L 313.163 56.692 Q 313.764 56.53 315.137 56.044 L 315.137 56.044 L 315.137 56.044 Q 316.509 55.558 317.41 55.396 L 317.41 55.396 L 317.41 55.396 Q 318.311 55.234 319.598 55.072 L 319.598 55.072 L 319.598 55.072 Q 320.885 54.91 322.171 54.91 L 322.171 54.91 L 322.171 54.91 Q 328.692 54.91 332.466 58.959 L 332.466 58.959 L 332.466 58.959 Q 336.241 63.007 336.241 68.675 L 336.241 68.675 L 336.241 98.635 L 329.893 98.635 L 329.893 68.675 L 329.893 68.675 Q 329.893 64.789 327.791 62.846 L 327.791 62.846 L 327.791 62.846 Q 325.689 60.902 322.171 60.902 L 322.171 60.902 L 322.171 60.902 Q 318.911 60.902 315.995 61.55 L 315.995 61.55 L 315.995 61.55 Q 313.078 62.198 311.319 62.886 L 311.319 62.886 L 311.319 62.886 Q 309.56 63.574 305.356 65.518 L 305.356 65.518 L 305.356 98.635 Z " fill="rgb(6,27,51)"/><path d=" M 349.11 48.676 L 349.11 48.676 L 349.11 44.303 L 349.11 44.303 Q 349.11 42.279 351.169 42.279 L 351.169 42.279 L 355.458 42.279 L 355.458 42.279 Q 357.431 42.279 357.431 44.303 L 357.431 44.303 L 357.431 48.676 L 357.431 48.676 Q 357.431 50.538 355.458 50.538 L 355.458 50.538 L 351.169 50.538 L 351.169 50.538 Q 349.11 50.538 349.11 48.676 Z " fill="rgb(6,27,51)"/><path d=" M 356.316 98.635 L 349.968 98.635 L 349.968 55.639 L 356.316 55.639 L 356.316 98.635 Z " fill="rgb(6,27,51)"/><path d=" M 377.506 98.635 L 371.158 98.635 L 371.158 55.639 L 375.619 55.639 L 377.506 60.659 L 377.506 60.659 Q 377.764 60.578 379.394 59.647 L 379.394 59.647 L 379.394 59.647 Q 381.024 58.716 381.41 58.554 L 381.41 58.554 L 381.41 58.554 Q 381.796 58.392 383.254 57.623 L 383.254 57.623 L 383.254 57.623 Q 384.713 56.854 385.314 56.692 L 385.314 56.692 L 385.314 56.692 Q 385.914 56.53 387.287 56.044 L 387.287 56.044 L 387.287 56.044 Q 388.659 55.558 389.56 55.396 L 389.56 55.396 L 389.56 55.396 Q 390.461 55.234 391.748 55.072 L 391.748 55.072 L 391.748 55.072 Q 393.035 54.91 394.321 54.91 L 394.321 54.91 L 394.321 54.91 Q 400.842 54.91 404.616 58.959 L 404.616 58.959 L 404.616 58.959 Q 408.391 63.007 408.391 68.675 L 408.391 68.675 L 408.391 98.635 L 402.043 98.635 L 402.043 68.675 L 402.043 68.675 Q 402.043 64.87 399.898 62.886 L 399.898 62.886 L 399.898 62.886 Q 397.753 60.902 394.321 60.902 L 394.321 60.902 L 394.321 60.902 Q 391.061 60.902 388.145 61.55 L 388.145 61.55 L 388.145 61.55 Q 385.228 62.198 383.469 62.886 L 383.469 62.886 L 383.469 62.886 Q 381.71 63.574 377.506 65.518 L 377.506 65.518 L 377.506 98.635 Z " fill="rgb(6,27,51)"/><path d=" M 222.783 38.635 L 222.783 38.635 L 222.783 30.619 L 222.783 30.619 Q 222.783 18.352 229.475 13.676 L 229.475 13.676 L 229.475 13.676 Q 236.166 9 248.263 9 L 248.263 9 L 248.263 9 Q 257.013 9 280.434 11.915 L 280.434 11.915 L 280.434 19.202 L 248.263 17.988 L 248.263 17.988 Q 246.718 17.866 245.56 17.866 L 245.56 17.866 L 245.56 17.866 Q 238.997 17.866 235.651 20.478 L 235.651 20.478 L 235.651 20.478 Q 232.306 23.089 232.306 30.619 L 232.306 30.619 L 232.306 38.635 L 232.306 38.635 Q 232.306 46.166 235.458 48.352 L 235.458 48.352 L 235.458 48.352 Q 238.611 50.538 245.432 50.538 L 245.432 50.538 L 263.705 50.538 L 263.705 50.538 Q 283.78 50.538 283.78 71.428 L 283.78 71.428 L 283.78 79.687 L 283.78 79.687 Q 283.78 85.882 281.592 90.011 L 281.592 90.011 L 281.592 90.011 Q 279.405 94.141 275.416 96.145 L 275.416 96.145 L 275.416 96.145 Q 271.426 98.149 267.308 98.878 L 267.308 98.878 L 267.308 98.878 Q 263.19 99.606 257.785 99.606 L 257.785 99.606 L 257.785 99.606 Q 253.281 99.606 241.893 98.513 L 241.893 98.513 L 241.893 98.513 Q 230.504 97.42 225.614 96.57 L 225.614 96.57 L 225.614 89.282 L 225.614 89.282 Q 239.769 90.618 257.785 90.618 L 257.785 90.618 L 257.785 90.618 Q 274.257 90.618 274.257 79.687 L 274.257 79.687 L 274.257 71.428 L 274.257 71.428 Q 274.257 65.72 271.941 62.623 L 271.941 62.623 L 271.941 62.623 Q 269.625 59.526 263.705 59.526 L 263.705 59.526 L 245.689 59.526 L 245.689 59.526 Q 238.354 59.526 233.528 57.825 L 233.528 57.825 L 233.528 57.825 Q 228.702 56.125 226.515 52.846 L 226.515 52.846 L 226.515 52.846 Q 224.327 49.566 223.555 46.348 L 223.555 46.348 L 223.555 46.348 Q 222.783 43.129 222.783 38.635 Z " fill="rgb(255,173,0)"/><path d=" M 116.788 85.598 L 116.788 85.598 L 116.788 55.639 L 123.137 55.639 L 123.137 85.598 L 123.137 85.598 Q 123.137 89.404 125.282 91.388 L 125.282 91.388 L 125.282 91.388 Q 127.426 93.372 130.858 93.372 L 130.858 93.372 L 130.858 93.372 Q 134.118 93.372 137.035 92.724 L 137.035 92.724 L 137.035 92.724 Q 139.952 92.076 141.711 91.388 L 141.711 91.388 L 141.711 91.388 Q 143.469 90.699 147.673 88.756 L 147.673 88.756 L 147.673 55.639 L 154.022 55.639 L 154.022 98.635 L 149.56 98.635 L 147.673 93.614 L 147.673 93.614 Q 147.416 93.695 145.786 94.627 L 145.786 94.627 L 145.786 94.627 Q 144.156 95.558 143.77 95.72 L 143.77 95.72 L 143.77 95.72 Q 143.383 95.882 141.925 96.651 L 141.925 96.651 L 141.925 96.651 Q 140.467 97.42 139.866 97.582 L 139.866 97.582 L 139.866 97.582 Q 139.266 97.744 137.893 98.23 L 137.893 98.23 L 137.893 98.23 Q 136.52 98.716 135.619 98.878 L 135.619 98.878 L 135.619 98.878 Q 134.719 99.039 133.432 99.201 L 133.432 99.201 L 133.432 99.201 Q 132.145 99.363 130.858 99.363 L 130.858 99.363 L 130.858 99.363 Q 124.338 99.363 120.563 95.315 L 120.563 95.315 L 120.563 95.315 Q 116.788 91.266 116.788 85.598 Z " fill="rgb(6,27,51)"/><path d=" M 174.954 98.635 L 168.606 98.635 L 168.606 55.639 L 173.067 55.639 L 174.954 60.659 L 174.954 60.659 Q 175.212 60.578 176.842 59.647 L 176.842 59.647 L 176.842 59.647 Q 178.472 58.716 178.858 58.554 L 178.858 58.554 L 178.858 58.554 Q 179.244 58.392 180.702 57.623 L 180.702 57.623 L 180.702 57.623 Q 182.161 56.854 182.761 56.692 L 182.761 56.692 L 182.761 56.692 Q 183.362 56.53 184.735 56.044 L 184.735 56.044 L 184.735 56.044 Q 186.107 55.558 187.008 55.396 L 187.008 55.396 L 187.008 55.396 Q 187.909 55.234 189.196 55.072 L 189.196 55.072 L 189.196 55.072 Q 190.483 54.91 191.769 54.91 L 191.769 54.91 L 191.769 54.91 Q 198.29 54.91 202.064 58.959 L 202.064 58.959 L 202.064 58.959 Q 205.839 63.007 205.839 68.675 L 205.839 68.675 L 205.839 98.635 L 199.491 98.635 L 199.491 68.675 L 199.491 68.675 Q 199.491 64.87 197.346 62.886 L 197.346 62.886 L 197.346 62.886 Q 195.201 60.902 191.769 60.902 L 191.769 60.902 L 191.769 60.902 Q 188.509 60.902 185.593 61.55 L 185.593 61.55 L 185.593 61.55 Q 182.676 62.198 180.917 62.886 L 180.917 62.886 L 180.917 62.886 Q 179.158 63.574 174.954 65.518 L 174.954 65.518 L 174.954 98.635 Z " fill="rgb(6,27,51)"/><path d=" M 41.421 38.635 L 41.421 38.635 L 41.421 30.619 L 41.421 30.619 Q 41.421 18.352 48.113 13.676 L 48.113 13.676 L 48.113 13.676 Q 54.805 9 66.901 9 L 66.901 9 L 66.901 9 Q 75.652 9 99.073 11.915 L 99.073 11.915 L 99.073 19.202 L 66.901 17.988 L 66.901 17.988 Q 65.357 17.866 64.199 17.866 L 64.199 17.866 L 64.199 17.866 Q 57.636 17.866 54.29 20.478 L 54.29 20.478 L 54.29 20.478 Q 50.944 23.089 50.944 30.619 L 50.944 30.619 L 50.944 38.635 L 50.944 38.635 Q 50.944 46.166 54.097 48.352 L 54.097 48.352 L 54.097 48.352 Q 57.25 50.538 64.07 50.538 L 64.07 50.538 L 82.343 50.538 L 82.343 50.538 Q 102.418 50.538 102.418 71.428 L 102.418 71.428 L 102.418 79.687 L 102.418 79.687 Q 102.418 85.882 100.231 90.011 L 100.231 90.011 L 100.231 90.011 Q 98.043 94.141 94.054 96.145 L 94.054 96.145 L 94.054 96.145 Q 90.065 98.149 85.947 98.878 L 85.947 98.878 L 85.947 98.878 Q 81.829 99.606 76.424 99.606 L 76.424 99.606 L 76.424 99.606 Q 71.92 99.606 60.531 98.513 L 60.531 98.513 L 60.531 98.513 Q 49.142 97.42 44.252 96.57 L 44.252 96.57 L 44.252 89.282 L 44.252 89.282 Q 58.408 90.618 76.424 90.618 L 76.424 90.618 L 76.424 90.618 Q 92.896 90.618 92.896 79.687 L 92.896 79.687 L 92.896 71.428 L 92.896 71.428 Q 92.896 65.72 90.579 62.623 L 90.579 62.623 L 90.579 62.623 Q 88.263 59.526 82.343 59.526 L 82.343 59.526 L 64.327 59.526 L 64.327 59.526 Q 56.992 59.526 52.166 57.825 L 52.166 57.825 L 52.166 57.825 Q 47.341 56.125 45.153 52.846 L 45.153 52.846 L 45.153 52.846 Q 42.965 49.566 42.193 46.348 L 42.193 46.348 L 42.193 46.348 Q 41.421 43.129 41.421 38.635 Z " fill="rgb(255,173,0)"/></g></g><rect x="41.421" y="114.554" width="417.158" height="3.596" transform="matrix(1,0,0,1,0,0)" fill="rgb(6,27,51)"/><g transform="matrix(3.596,0,0,3.596,41.421,133.098)"><text transform="matrix(1,0,0,1,0,14.404)" style="font-family:&quot;Aldrich&quot;;font-weight:400;font-size:20px;font-style:normal;letter-spacing:1.5;fill:#061b33;stroke:none;">BUILDERS</text></g></g><path d=" M 421.26 76.934 Q 421.26 69.809 422.289 65.477 Q 423.319 61.145 426.021 58.918 Q 428.724 56.692 432.027 56.004 Q 435.329 55.315 441.163 55.315 Q 445.882 55.315 448.541 55.72 Q 451.201 56.125 453.774 57.582 Q 456.348 59.04 457.463 62.198 Q 458.579 65.356 458.579 70.538 Q 458.579 80.416 446.825 80.416 L 427.608 80.416 Q 427.608 87.946 429.41 90.497 Q 431.212 93.048 436.273 93.048 Q 436.874 93.048 438.075 93.048 Q 439.276 93.048 439.876 93.048 Q 451.887 93.048 457.721 92.238 L 457.721 96.772 Q 449.228 99.039 436.273 99.039 Q 427.608 99.039 424.434 94.343 Q 421.26 89.647 421.26 76.934 Z  M 427.61 74.507 L 446.827 74.507 Q 452.232 74.507 452.232 70.539 Q 452.232 64.304 450.301 62.806 Q 448.371 61.308 441.25 61.308 Q 438.248 61.308 436.832 61.389 Q 435.417 61.47 433.486 61.835 L 430.741 63.009 Q 429.926 63.818 429.025 65.276 Q 428.124 66.733 427.867 69.001 Q 427.61 71.268 427.61 74.507 Z " fill="rgb(6,27,51)"/></g></svg>